<svg width="20" height="14" viewBox="0 0 20 14" fill="none" xmlns="http://www.w3.org/2000/svg">
  <path
    d="M9.99967 10.6639C11.0413 10.6639 11.9268 10.2994 12.6559 9.57019C13.3851 8.84102 13.7497 7.95561 13.7497 6.91394C13.7497 5.87227 13.3851 4.98686 12.6559 4.25769C11.9268 3.52852 11.0413 3.16394 9.99967 3.16394C8.95801 3.16394 8.07259 3.52852 7.34342 4.25769C6.61426 4.98686 6.24967 5.87227 6.24967 6.91394C6.24967 7.95561 6.61426 8.84102 7.34342 9.57019C8.07259 10.2994 8.95801 10.6639 9.99967 10.6639ZM9.99967 9.16394C9.37467 9.16394 8.84342 8.94519 8.40592 8.50769C7.96842 8.07019 7.74967 7.53894 7.74967 6.91394C7.74967 6.28894 7.96842 5.75769 8.40592 5.32019C8.84342 4.88269 9.37467 4.66394 9.99967 4.66394C10.6247 4.66394 11.1559 4.88269 11.5934 5.32019C12.0309 5.75769 12.2497 6.28894 12.2497 6.91394C12.2497 7.53894 12.0309 8.07019 11.5934 8.50769C11.1559 8.94519 10.6247 9.16394 9.99967 9.16394ZM9.99967 13.1639C7.9719 13.1639 6.12467 12.598 4.45801 11.466C2.79134 10.3341 1.58301 8.81672 0.833008 6.91394C1.58301 5.01116 2.79134 3.4938 4.45801 2.36186C6.12467 1.22991 7.9719 0.66394 9.99967 0.66394C12.0275 0.66394 13.8747 1.22991 15.5413 2.36186C17.208 3.4938 18.4163 5.01116 19.1663 6.91394C18.4163 8.81672 17.208 10.3341 15.5413 11.466C13.8747 12.598 12.0275 13.1639 9.99967 13.1639ZM9.99967 11.4973C11.5691 11.4973 13.0101 11.0841 14.3226 10.2577C15.6351 9.4313 16.6386 8.31672 17.333 6.91394C16.6386 5.51116 15.6351 4.39658 14.3226 3.57019C13.0101 2.7438 11.5691 2.33061 9.99967 2.33061C8.43023 2.33061 6.98926 2.7438 5.67676 3.57019C4.36426 4.39658 3.36079 5.51116 2.66634 6.91394C3.36079 8.31672 4.36426 9.4313 5.67676 10.2577C6.98926 11.0841 8.43023 11.4973 9.99967 11.4973Z"
    fill="currentColor" />
</svg>